PathFileType	4	(X/Y/Z)	/Users/mathieubourgeois/Desktop/Analyse/Traitement/Sujet_07/Data/Transformed_Sujet_07_velo_60.trc
DataRate	CameraRate	NumFrames	NumMarkers	Units	OrigDataRate	OrigDataStartFrame	OrigNumFrames
120.000000	120.000000	6	36	mm	120.000000	700	1868
Frame#	Time	RFHD			LFHD			RBHD			LBHD			C7			CLAV			RSHO			LSHO			STRN			T10			RBWT			LBWT			RFWT			LFWT			RKNI			LKNI			RKNE			LKNE			LANI			RANI			LANE			RANE			LTOE			RTOE			LHEE			RHEE			RHUM			LHUM			RRAD			LRAD			RWRA			RWRB			LWRA			LWRB			LCAR			RCAR			
		X1	Y1	Z1	X2	Y2	Z2	X3	Y3	Z3	X4	Y4	Z4	X5	Y5	Z5	X6	Y6	Z6	X7	Y7	Z7	X8	Y8	Z8	X9	Y9	Z9	X10	Y10	Z10	X11	Y11	Z11	X12	Y12	Z12	X13	Y13	Z13	X14	Y14	Z14	X15	Y15	Z15	X16	Y16	Z16	X17	Y17	Z17	X18	Y18	Z18	X19	Y19	Z19	X20	Y20	Z20	X21	Y21	Z21	X22	Y22	Z22	X23	Y23	Z23	X24	Y24	Z24	X25	Y25	Z25	X26	Y26	Z26	X27	Y27	Z27	X28	Y28	Z28	X29	Y29	Z29	X30	Y30	Z30	X31	Y31	Z31	X32	Y32	Z32	X33	Y33	Z33	X34	Y34	Z34	X35	Y35	Z35	X36	Y36	Z36	

701	5.833333333333333	240.6048583984375	1364.589111328125	156.2194366455078	251.8626556396484	1342.74755859375	25.5964965820312	197.3956146240234	1510.216918945312	145.4439697265624	207.2535552978516	1502.233764648438	1.417855381965571	44.8454246520996	1503.255615234375	51.95173645019523	24.54438972473144	1367.079345703125	61.12253952026359	56.37017822265622	1427.995483398438	209.8729858398437	87.13977050781251	1459.341552734375	-80.13157653808601	-135.4360809326172	1292.420043945312	43.79119110107413	-205.5833740234375	1522.892700195312	27.34305000305164	-447.8338623046875	1302.526977539062	98.7004241943358	-450.7745361328125	1291.754028320312	-15.67367839813246	-285.5309448242188	1221.370971679688	146.2289581298827	-293.6480102539062	1207.471069335938	-65.56488037109386	-8.074760437011735	862.167724609375	133.7698059082031	-184.8975524902344	707.8121948242188	-40.01105880737311	-34.65370178222659	920.10693359375	236.2340393066406	-156.7503814697265	752.988525390625	-146.3510742187501	-372.1181030273438	377.2096252441406	-52.95783233642585	-124.4444885253906	497.681396484375	127.6537857055664	-391.4394836425781	372.9520263671875	-141.5611419677735	-154.5606536865235	488.5096130371094	214.1668090820312	-227.3550415039062	240.5573577880859	-109.568962097168	50.78021240234372	424.0613098144531	203.2695007324218	-451.7083129882812	384.7213439941406	-104.056625366211	-210.5198974609375	466.9557495117188	169.1966705322265	67.56124877929685	1091.503173828125	246.1829376220703	97.27442932128908	1120.26025390625	-162.6399993896485	112.949836730957	1118.871459960938	289.7393493652343	161.5082244873047	1137.772216796875	-172.0829467773438	318.0323181152343	937.5381469726562	252.7680206298828	280.2698364257812	900.5382690429688	306.3910217285156	316.4689331054688	929.8395385742188	-104.689208984375	277.5399169921875	886.2191772460938	-156.459457397461	372.2868347167969	913.9232788085938	-193.4775848388672	369.9107971191406	926.638916015625	341.2465515136719	
702	5.841666666666667	240.1720428466797	1364.462280273438	156.0797424316406	251.5311279296875	1342.523803710938	25.50197219848628	197.1438293457031	1510.11279296875	145.2454681396484	207.0554962158203	1502.043334960938	1.258763194084101	44.61603546142577	1503.172485351562	51.74470520019523	24.19605064392089	1367.038330078125	60.87049484252921	56.14184188842771	1427.84716796875	209.609161376953	86.85579681396486	1459.091796875	-80.48979949951179	-135.8185882568359	1292.450561523438	43.61309432983389	-205.8519134521484	1522.853759765625	27.49217414855945	-447.8274536132812	1302.172485351562	99.13395690917955	-450.8941040039062	1291.69677734375	-15.32686614990248	-285.4946594238281	1220.942749023438	146.3435668945311	-293.6168823242188	1207.714477539062	-65.50417327880871	-11.06538677215578	854.9274291992188	133.328384399414	-179.4703826904297	712.0879516601562	-40.76169586181647	-37.5559005737305	912.9529418945312	235.7465362548828	-151.6678771972656	756.9085083007812	-147.1091613769532	-374.5028686523438	386.354736328125	-52.76136398315436	-121.7107543945313	487.3858947753906	127.5140533447265	-394.1864624023438	382.4458312988281	-141.4419250488282	-150.6736450195313	478.7045288085938	214.6160125732421	-232.2736968994141	247.6148071289062	-109.5687255859375	55.46918106079099	416.8844909667969	203.1952056884765	-454.2327575683594	395.2199096679688	-103.7724533081056	-206.4569396972657	456.3996276855469	169.9111175537109	67.58747863769528	1091.474853515625	246.0597229003906	96.98187255859376	1120.06640625	-162.4398956298829	113.0498886108398	1118.947875976562	289.5061950683593	161.1951446533203	1137.654907226562	-172.1033782958985	318.0834045410156	937.5201416015625	252.73388671875	280.3016967773437	900.571044921875	306.3721313476562	316.4295959472656	929.8829345703125	-104.7015151977539	277.4850769042969	886.2197875976562	-156.4204864501953	372.2303771972656	913.9227294921875	-193.5022888183594	369.9132385253906	926.6664428710938	341.2403869628906	
703	5.85	239.8367919921875	1364.354614257812	155.8789520263671	251.1922607421875	1342.36474609375	25.37217140197749	196.8867950439453	1510.025634765625	145.0347290039062	206.8410186767578	1501.88330078125	1.053693771362238	44.44628524780273	1503.131958007812	51.51524353027335	23.86954307556152	1367.005981445312	60.60618591308585	55.89268875122067	1427.72216796875	209.3417358398437	86.64269256591798	1458.873291015625	-80.88246154785163	-136.1313629150391	1292.461791992188	43.42440414428702	-206.1143646240234	1522.910034179688	27.55166435241687	-447.7471008300781	1301.7861328125	99.55585479736314	-450.966064453125	1291.639770507812	-14.94760894775404	-285.3967590332031	1220.527099609375	146.4258728027343	-293.53564453125	1207.910888671875	-65.43989562988293	-14.21875953674318	848.3146362304688	133.3468322753906	-174.2249298095703	716.5105590820312	-41.530990600586	-40.63726043701175	905.5383911132812	235.1996154785156	-146.511734008789	761.0062866210938	-147.9230041503907	-376.6419372558594	395.7050170898438	-52.66424560546881	-119.5385665893555	477.8128051757812	128.1273498535156	-396.6485595703125	392.1133422851562	-141.301742553711	-147.1383361816407	468.9796447753906	215.0623016357421	-237.0761413574219	254.7064056396484	-109.4202346801758	59.76301956176755	409.3247985839844	203.0731048583984	-455.2502136230469	406.1100463867188	-103.8784637451173	-202.8277740478516	446.0495300292969	170.2033996582031	67.62091064453122	1091.465698242188	245.9390106201171	96.69034576416017	1119.87646484375	-162.2028503417969	113.150894165039	1119.036743164062	289.3030090332031	160.8829498291016	1137.517822265625	-172.2018280029297	318.1138305664062	937.4970703125	252.7270355224609	280.3263854980468	900.60595703125	306.3778991699219	316.3980712890625	929.93017578125	-104.7032241821289	277.4444885253906	886.2249755859375	-156.361572265625	372.1746826171875	913.9199829101562	-193.4839935302734	369.9359741210937	926.6920166015625	341.2530822753906	
704	5.858333333333333	239.5898895263672	1364.27294921875	155.7067871093749	250.8730926513672	1342.222778320312	25.22143554687495	196.67041015625	1509.9609375	144.8168945312499	206.6588897705078	1501.76708984375	0.863264381885462	44.22848510742187	1503.12060546875	51.28674316406241	23.59727668762206	1366.964477539062	60.35771560668937	55.65185546874997	1427.623901367188	209.0903167724609	86.4574432373047	1458.665649414062	-81.32096862792976	-136.3977355957031	1292.520263671875	43.27826309204092	-206.3825073242188	1522.958129882812	27.57909965515125	-447.6053161621094	1301.415649414062	99.97364807128892	-451.0017700195312	1291.572143554688	-14.55234050750746	-285.2397766113281	1220.14794921875	146.5091094970702	-293.4603576660156	1208.090698242188	-65.35263824462902	-18.69261550903322	839.1655883789062	132.1042938232421	-168.8740844726562	720.978271484375	-42.9350547790528	-44.02564620971683	898.037841796875	234.7268066406249	-141.2964477539062	765.2904052734375	-148.675277709961	-377.9678955078125	406.5179748535156	-53.24756622314461	-116.6317443847656	468.3646850585938	128.3523712158203	-398.4696960449219	402.005859375	-141.1524658203126	-143.8765258789063	459.2806091308594	215.3526153564453	-240.9423980712891	262.5109252929688	-109.3658828735352	63.61415481567381	401.4606323242188	202.9210662841797	-457.4486694335938	416.6934814453125	-103.3016586303712	-199.3221282958985	435.7280883789062	170.570571899414	67.66080474853513	1091.4453125	245.8455963134765	96.40098571777345	1119.693359375	-161.9275512695313	113.2451171875	1119.096069335938	289.1202697753906	160.5293579101563	1137.3271484375	-172.3453521728516	318.1527099609374	937.4755859375	252.7333679199218	280.3677368164062	900.6410522460938	306.4094848632812	316.3775024414062	929.9758911132812	-104.6808395385742	277.4174194335938	886.209716796875	-156.2989349365235	372.1333923339844	913.9141235351562	-193.4725189208984	369.9527587890624	926.7144165039062	341.2859497070312	
705	5.866666666666666	239.3128814697265	1364.174072265625	155.5316772460937	250.6285095214844	1342.127807617188	25.05506706237788	196.5144653320312	1509.901000976562	144.6110839843749	206.4930114746094	1501.695190429688	0.6471423506736089	44.04208755493163	1503.091674804688	51.0436248779296	23.36133193969726	1366.892578125	60.10965728759757	55.47492218017575	1427.5517578125	208.8390960693359	86.33875274658205	1458.49072265625	-81.67453002929695	-136.5380706787109	1292.588134765625	43.07919311523428	-206.6275482177734	1522.99267578125	27.5498695373534	-447.4271850585938	1301.09130859375	100.4496459960936	-451.0474243164062	1291.5185546875	-14.11972904205336	-285.0011596679688	1219.796752929688	146.5442504882811	-293.3451232910156	1208.257690429688	-65.25243377685558	-22.55125808715822	831.395263671875	131.5079956054687	-163.9349517822266	725.6397094726562	-43.78617095947272	-47.40605163574222	890.465576171875	234.0359344482421	-136.0439758300781	769.8272705078125	-149.408416748047	-379.3912658691406	415.081298828125	-52.52280426025398	-114.0100173950195	458.9920349121094	128.4961700439453	-399.8637390136719	412.035400390625	-141.071746826172	-140.9831848144532	449.7047424316406	215.5286865234374	-244.2938385009766	270.4767456054688	-109.3998107910157	67.08358001708982	393.3050231933594	202.7190704345703	-458.6904907226562	427.5907897949219	-103.0383682250977	-196.1915588378907	425.6112060546875	170.9021606445312	67.68406677246091	1091.404052734375	245.7593994140624	96.13585662841798	1119.5146484375	-161.5764923095704	113.3110580444336	1119.12548828125	288.9897460937499	160.1861572265625	1137.109985351562	-172.4906616210938	318.1796569824218	937.472412109375	252.7731170654297	280.3876037597656	900.6455688476562	306.4554443359375	316.3610534667969	930.019775390625	-104.6461639404297	277.3739318847656	886.2020874023438	-156.1979217529297	372.0959167480469	913.9226684570312	-193.4386901855469	369.9610290527343	926.7260131835938	341.3342590332031	
706	5.875	239.1018981933593	1364.09716796875	155.3400726318359	250.4486083984375	1342.07373046875	24.87408256530757	196.4311370849609	1509.882690429688	144.4264373779296	206.3610382080078	1501.650634765625	0.4334440827369023	43.87896728515624	1503.054565429688	50.78093719482413	23.1804084777832	1366.811767578125	59.87704086303702	55.35216903686521	1427.41015625	208.550567626953	86.2688674926758	1458.352416992188	-82.0758132934571	-136.6966705322266	1292.611938476562	42.8443717956542	-206.8183135986328	1523.020751953125	27.49329757690418	-447.2030334472656	1300.777709960938	101.0214614868163	-451.0432739257812	1291.492797851562	-13.68154239654555	-284.6993408203125	1219.439697265625	146.6637878417968	-293.2207641601562	1208.451782226562	-65.18658447265636	-26.60746383666994	823.6517944335938	130.8051452636718	-156.1761779785156	730.5516357421875	-43.85943222045905	-51.14848327636722	882.9252319335938	233.4087829589843	-130.712417602539	774.5966796875	-150.1311798095704	-380.3291931152344	424.9112548828125	-52.54676055908211	-110.4629287719727	449.908935546875	128.2111206054687	-400.7204284667969	422.1857604980469	-141.0223541259766	-138.4084014892578	440.1729125976562	215.5464477539062	-246.8134460449219	278.7196350097656	-109.7710266113282	70.07695770263669	384.78173828125	202.4914093017578	-459.2824401855469	438.6836547851562	-102.8764266967774	-193.3580017089844	415.7102966308594	171.0041503906249	67.68082427978513	1091.338745117188	245.7443237304687	95.89952087402345	1119.354248046875	-161.1607513427735	113.3092346191406	1119.109619140625	288.9084167480468	159.872543334961	1136.924682617188	-172.5954284667969	318.1691894531249	937.451171875	252.8115997314453	280.3982543945312	900.615234375	306.5063171386719	316.3728332519531	930.0473022460938	-104.6227569580078	277.3360595703125	886.1796875	-156.0845031738282	372.0499572753906	913.922607421875	-193.4176025390625	369.9968261718749	926.7199096679688	341.3653564453125	
